<?xml version="1.0" encoding="UTF-8" standalone="no"?>
<!DOCTYPE svg PUBLIC "-//W3C//DTD SVG 1.1//EN"
 "http://www.w3.org/Graphics/SVG/1.1/DTD/svg11.dtd">
<!-- Generated by graphviz version 2.47.0 (20210316.0004)
 -->
<!-- Title: dependencies Pages: 1 -->
<svg width="504pt" height="284pt"
 viewBox="0.00 0.00 504.00 284.00" xmlns="http://www.w3.org/2000/svg" xmlns:xlink="http://www.w3.org/1999/xlink">
<g id="graph0" class="graph" transform="scale(1 1) rotate(0) translate(4 280)">
<title>dependencies</title>
<polygon fill="white" stroke="transparent" points="-4,4 -4,-280 500,-280 500,4 -4,4"/>
<text text-anchor="start" x="227.01" y="-42.4" font-family="Times-12" font-weight="bold" font-size="14.00">Legend</text>
<polygon fill="#ffffb3" stroke="transparent" points="14,-10 14,-30 34,-30 34,-10 14,-10"/>
<text text-anchor="start" x="37.63" y="-15.4" font-family="Times-12" font-size="14.00"> &#160;Declarations</text>
<polygon fill="#8dd3c7" stroke="transparent" points="127,-10 127,-30 147,-30 147,-10 127,-10"/>
<text text-anchor="start" x="150.73" y="-15.4" font-family="Times-12" font-size="14.00"> &#160;Module</text>
<polygon fill="#80b1d3" stroke="transparent" points="213,-10 213,-30 233,-30 233,-10 213,-10"/>
<text text-anchor="start" x="236.78" y="-15.4" font-family="Times-12" font-size="14.00"> &#160;Bootstrap</text>
<polygon fill="#fdb462" stroke="transparent" points="310,-10 310,-30 330,-30 330,-10 310,-10"/>
<text text-anchor="start" x="333.67" y="-15.4" font-family="Times-12" font-size="14.00"> &#160;Providers</text>
<polygon fill="#fb8072" stroke="transparent" points="406,-10 406,-30 426,-30 426,-10 406,-10"/>
<text text-anchor="start" x="429.73" y="-15.4" font-family="Times-12" font-size="14.00"> &#160;Exports</text>
<g id="clust1" class="cluster">
<title>cluster_SharedModule</title>
<polygon fill="none" stroke="black" stroke-dasharray="1,5" points="85,-70 85,-268 411,-268 411,-70 85,-70"/>
</g>
<g id="clust2" class="cluster">
<title>cluster_SharedModule_declarations</title>
<polygon fill="none" stroke="black" points="97,-78 97,-130 399,-130 399,-78 97,-78"/>
</g>
<g id="clust6" class="cluster">
<title>cluster_SharedModule_exports</title>
<polygon fill="none" stroke="black" points="93,-208 93,-260 403,-260 403,-208 93,-208"/>
</g>
<!-- LazyImageComponent -->
<g id="node1" class="node">
<title>LazyImageComponent</title>
<polygon fill="#ffffb3" stroke="black" points="391.29,-122 246.71,-122 246.71,-86 391.29,-86 391.29,-122"/>
<text text-anchor="middle" x="319" y="-99.8" font-family="Times,serif" font-size="14.00">LazyImageComponent</text>
</g>
<!-- SharedModule -->
<g id="node3" class="node">
<title>SharedModule</title>
<polygon fill="#8dd3c7" stroke="black" points="217.42,-187 214.42,-191 193.42,-191 190.42,-187 118.58,-187 118.58,-151 217.42,-151 217.42,-187"/>
<text text-anchor="middle" x="168" y="-164.8" font-family="Times,serif" font-size="14.00">SharedModule</text>
</g>
<!-- LazyImageComponent&#45;&gt;SharedModule -->
<g id="edge1" class="edge">
<title>LazyImageComponent&#45;&gt;SharedModule</title>
<path fill="none" stroke="black" d="M343.13,-122.02C343.13,-139.37 343.13,-163 343.13,-163 343.13,-163 227.25,-163 227.25,-163"/>
<polygon fill="black" stroke="black" points="227.25,-159.5 217.25,-163 227.25,-166.5 227.25,-159.5"/>
</g>
<!-- SidebarComponent -->
<g id="node2" class="node">
<title>SidebarComponent</title>
<polygon fill="#ffffb3" stroke="black" points="229.1,-122 104.9,-122 104.9,-86 229.1,-86 229.1,-122"/>
<text text-anchor="middle" x="167" y="-99.8" font-family="Times,serif" font-size="14.00">SidebarComponent</text>
</g>
<!-- SidebarComponent&#45;&gt;SharedModule -->
<g id="edge2" class="edge">
<title>SidebarComponent&#45;&gt;SharedModule</title>
<path fill="none" stroke="black" d="M168,-122.11C168,-122.11 168,-140.99 168,-140.99"/>
<polygon fill="black" stroke="black" points="164.5,-140.99 168,-150.99 171.5,-140.99 164.5,-140.99"/>
</g>
<!-- LazyImageComponent  -->
<g id="node4" class="node">
<title>LazyImageComponent </title>
<polygon fill="#fb8072" stroke="black" points="394.79,-252 247.21,-252 247.21,-216 394.79,-216 394.79,-252"/>
<text text-anchor="middle" x="321" y="-229.8" font-family="Times,serif" font-size="14.00">LazyImageComponent </text>
</g>
<!-- SharedModule&#45;&gt;LazyImageComponent  -->
<g id="edge3" class="edge">
<title>SharedModule&#45;&gt;LazyImageComponent </title>
<path fill="none" stroke="black" stroke-dasharray="5,2" d="M217.51,-175C253.2,-175 295.12,-175 295.12,-175 295.12,-175 295.12,-205.98 295.12,-205.98"/>
<polygon fill="black" stroke="black" points="291.62,-205.98 295.12,-215.98 298.62,-205.98 291.62,-205.98"/>
</g>
<!-- SidebarComponent  -->
<g id="node5" class="node">
<title>SidebarComponent </title>
<polygon fill="#fb8072" stroke="black" points="228.6,-252 101.4,-252 101.4,-216 228.6,-216 228.6,-252"/>
<text text-anchor="middle" x="165" y="-229.8" font-family="Times,serif" font-size="14.00">SidebarComponent </text>
</g>
<!-- SharedModule&#45;&gt;SidebarComponent  -->
<g id="edge4" class="edge">
<title>SharedModule&#45;&gt;SidebarComponent </title>
<path fill="none" stroke="black" stroke-dasharray="5,2" d="M168,-187.11C168,-187.11 168,-205.99 168,-205.99"/>
<polygon fill="black" stroke="black" points="164.5,-205.99 168,-215.99 171.5,-205.99 164.5,-205.99"/>
</g>
</g>
</svg>
