<?xml version="1.0" encoding="UTF-8" standalone="no"?>
<!DOCTYPE svg PUBLIC "-//W3C//DTD SVG 1.1//EN"
 "http://www.w3.org/Graphics/SVG/1.1/DTD/svg11.dtd">
<!-- Generated by graphviz version 2.47.0 (20210316.0004)
 -->
<!-- Title: dependencies Pages: 1 -->
<svg width="780pt" height="284pt"
 viewBox="0.00 0.00 780.00 284.00" xmlns="http://www.w3.org/2000/svg" xmlns:xlink="http://www.w3.org/1999/xlink">
<g id="graph0" class="graph" transform="scale(1 1) rotate(0) translate(4 280)">
<title>dependencies</title>
<polygon fill="white" stroke="transparent" points="-4,4 -4,-280 776,-280 776,4 -4,4"/>
<text text-anchor="start" x="365.01" y="-42.4" font-family="Times-12" font-weight="bold" font-size="14.00">Legend</text>
<polygon fill="#ffffb3" stroke="transparent" points="152,-10 152,-30 172,-30 172,-10 152,-10"/>
<text text-anchor="start" x="175.63" y="-15.4" font-family="Times-12" font-size="14.00"> &#160;Declarations</text>
<polygon fill="#8dd3c7" stroke="transparent" points="265,-10 265,-30 285,-30 285,-10 265,-10"/>
<text text-anchor="start" x="288.73" y="-15.4" font-family="Times-12" font-size="14.00"> &#160;Module</text>
<polygon fill="#80b1d3" stroke="transparent" points="351,-10 351,-30 371,-30 371,-10 351,-10"/>
<text text-anchor="start" x="374.78" y="-15.4" font-family="Times-12" font-size="14.00"> &#160;Bootstrap</text>
<polygon fill="#fdb462" stroke="transparent" points="448,-10 448,-30 468,-30 468,-10 448,-10"/>
<text text-anchor="start" x="471.67" y="-15.4" font-family="Times-12" font-size="14.00"> &#160;Providers</text>
<polygon fill="#fb8072" stroke="transparent" points="544,-10 544,-30 564,-30 564,-10 544,-10"/>
<text text-anchor="start" x="567.73" y="-15.4" font-family="Times-12" font-size="14.00"> &#160;Exports</text>
<g id="clust1" class="cluster">
<title>cluster_GifsModule</title>
<polygon fill="none" stroke="black" stroke-dasharray="1,5" points="8,-70 8,-268 764,-268 764,-70 8,-70"/>
</g>
<g id="clust7" class="cluster">
<title>cluster_GifsModule_imports</title>
<polygon fill="none" stroke="black" points="642,-78 642,-130 756,-130 756,-78 642,-78"/>
</g>
<g id="clust2" class="cluster">
<title>cluster_GifsModule_declarations</title>
<polygon fill="none" stroke="black" points="16,-78 16,-130 634,-130 634,-78 16,-78"/>
</g>
<g id="clust8" class="cluster">
<title>cluster_GifsModule_exports</title>
<polygon fill="none" stroke="black" points="331,-208 331,-260 493,-260 493,-208 331,-208"/>
</g>
<!-- CardListComponent -->
<g id="node1" class="node">
<title>CardListComponent</title>
<polygon fill="#ffffb3" stroke="black" points="626.32,-122 495.68,-122 495.68,-86 626.32,-86 626.32,-122"/>
<text text-anchor="middle" x="561" y="-99.8" font-family="Times,serif" font-size="14.00">CardListComponent</text>
</g>
<!-- GifsModule -->
<g id="node5" class="node">
<title>GifsModule</title>
<polygon fill="#8dd3c7" stroke="black" points="453.65,-187 450.65,-191 429.65,-191 426.65,-187 370.35,-187 370.35,-151 453.65,-151 453.65,-187"/>
<text text-anchor="middle" x="412" y="-164.8" font-family="Times,serif" font-size="14.00">GifsModule</text>
</g>
<!-- CardListComponent&#45;&gt;GifsModule -->
<g id="edge1" class="edge">
<title>CardListComponent&#45;&gt;GifsModule</title>
<path fill="none" stroke="black" d="M561,-122.02C561,-139.37 561,-163 561,-163 561,-163 463.9,-163 463.9,-163"/>
<polygon fill="black" stroke="black" points="463.9,-159.5 453.9,-163 463.9,-166.5 463.9,-159.5"/>
</g>
<!-- GifsCardComponent -->
<g id="node2" class="node">
<title>GifsCardComponent</title>
<polygon fill="#ffffb3" stroke="black" points="478.15,-122 345.85,-122 345.85,-86 478.15,-86 478.15,-122"/>
<text text-anchor="middle" x="412" y="-99.8" font-family="Times,serif" font-size="14.00">GifsCardComponent</text>
</g>
<!-- GifsCardComponent&#45;&gt;GifsModule -->
<g id="edge2" class="edge">
<title>GifsCardComponent&#45;&gt;GifsModule</title>
<path fill="none" stroke="black" d="M412,-122.11C412,-122.11 412,-140.99 412,-140.99"/>
<polygon fill="black" stroke="black" points="408.5,-140.99 412,-150.99 415.5,-140.99 408.5,-140.99"/>
</g>
<!-- HomePageComponent -->
<g id="node3" class="node">
<title>HomePageComponent</title>
<polygon fill="#ffffb3" stroke="black" points="327.26,-122 184.74,-122 184.74,-86 327.26,-86 327.26,-122"/>
<text text-anchor="middle" x="256" y="-99.8" font-family="Times,serif" font-size="14.00">HomePageComponent</text>
</g>
<!-- HomePageComponent&#45;&gt;GifsModule -->
<g id="edge3" class="edge">
<title>HomePageComponent&#45;&gt;GifsModule</title>
<path fill="none" stroke="black" d="M256,-122.02C256,-139.37 256,-163 256,-163 256,-163 360.19,-163 360.19,-163"/>
<polygon fill="black" stroke="black" points="360.19,-166.5 370.19,-163 360.19,-159.5 360.19,-166.5"/>
</g>
<!-- SearchBoxComponent -->
<g id="node4" class="node">
<title>SearchBoxComponent</title>
<polygon fill="#ffffb3" stroke="black" points="166.26,-122 23.74,-122 23.74,-86 166.26,-86 166.26,-122"/>
<text text-anchor="middle" x="95" y="-99.8" font-family="Times,serif" font-size="14.00">SearchBoxComponent</text>
</g>
<!-- SearchBoxComponent&#45;&gt;GifsModule -->
<g id="edge4" class="edge">
<title>SearchBoxComponent&#45;&gt;GifsModule</title>
<path fill="none" stroke="black" d="M95,-122.28C95,-143.32 95,-175 95,-175 95,-175 360.23,-175 360.23,-175"/>
<polygon fill="black" stroke="black" points="360.23,-178.5 370.23,-175 360.23,-171.5 360.23,-178.5"/>
</g>
<!-- HomePageComponent  -->
<g id="node7" class="node">
<title>HomePageComponent </title>
<polygon fill="#fb8072" stroke="black" points="485.26,-252 338.74,-252 338.74,-216 485.26,-216 485.26,-252"/>
<text text-anchor="middle" x="412" y="-229.8" font-family="Times,serif" font-size="14.00">HomePageComponent </text>
</g>
<!-- GifsModule&#45;&gt;HomePageComponent  -->
<g id="edge6" class="edge">
<title>GifsModule&#45;&gt;HomePageComponent </title>
<path fill="none" stroke="black" stroke-dasharray="5,2" d="M412,-187.11C412,-187.11 412,-205.99 412,-205.99"/>
<polygon fill="black" stroke="black" points="408.5,-205.99 412,-215.99 415.5,-205.99 408.5,-205.99"/>
</g>
<!-- SharedModule -->
<g id="node6" class="node">
<title>SharedModule</title>
<polygon fill="#8dd3c7" stroke="black" points="748.42,-122 745.42,-126 724.42,-126 721.42,-122 649.58,-122 649.58,-86 748.42,-86 748.42,-122"/>
<text text-anchor="middle" x="699" y="-99.8" font-family="Times,serif" font-size="14.00">SharedModule</text>
</g>
<!-- SharedModule&#45;&gt;GifsModule -->
<g id="edge5" class="edge">
<title>SharedModule&#45;&gt;GifsModule</title>
<path fill="none" stroke="black" d="M699,-122.28C699,-143.32 699,-175 699,-175 699,-175 463.73,-175 463.73,-175"/>
<polygon fill="black" stroke="black" points="463.73,-171.5 453.73,-175 463.73,-178.5 463.73,-171.5"/>
</g>
</g>
</svg>
