<?xml version="1.0" encoding="UTF-8" standalone="no"?>
<!DOCTYPE svg PUBLIC "-//W3C//DTD SVG 1.1//EN"
 "http://www.w3.org/Graphics/SVG/1.1/DTD/svg11.dtd">
<!-- Generated by graphviz version 2.47.0 (20210316.0004)
 -->
<!-- Title: dependencies Pages: 1 -->
<svg width="780pt" height="284pt"
 viewBox="0.00 0.00 780.00 284.00" xmlns="http://www.w3.org/2000/svg" xmlns:xlink="http://www.w3.org/1999/xlink">
<g id="graph0" class="graph" transform="scale(1 1) rotate(0) translate(4 280)">
<title>dependencies</title>
<polygon fill="white" stroke="transparent" points="-4,4 -4,-280 776,-280 776,4 -4,4"/>
<text text-anchor="start" x="365.01" y="-42.4" font-family="Times-12" font-weight="bold" font-size="14.00">Legend</text>
<polygon fill="#ffffb3" stroke="transparent" points="152,-10 152,-30 172,-30 172,-10 152,-10"/>
<text text-anchor="start" x="175.63" y="-15.4" font-family="Times-12" font-size="14.00"> &#160;Declarations</text>
<polygon fill="#8dd3c7" stroke="transparent" points="265,-10 265,-30 285,-30 285,-10 265,-10"/>
<text text-anchor="start" x="288.73" y="-15.4" font-family="Times-12" font-size="14.00"> &#160;Module</text>
<polygon fill="#80b1d3" stroke="transparent" points="351,-10 351,-30 371,-30 371,-10 351,-10"/>
<text text-anchor="start" x="374.78" y="-15.4" font-family="Times-12" font-size="14.00"> &#160;Bootstrap</text>
<polygon fill="#fdb462" stroke="transparent" points="448,-10 448,-30 468,-30 468,-10 448,-10"/>
<text text-anchor="start" x="471.67" y="-15.4" font-family="Times-12" font-size="14.00"> &#160;Providers</text>
<polygon fill="#fb8072" stroke="transparent" points="544,-10 544,-30 564,-30 564,-10 544,-10"/>
<text text-anchor="start" x="567.73" y="-15.4" font-family="Times-12" font-size="14.00"> &#160;Exports</text>
<g id="clust1" class="cluster">
<title>cluster_GifsModule</title>
<polygon fill="none" stroke="black" stroke-dasharray="1,5" points="8,-70 8,-268 764,-268 764,-70 8,-70"/>
</g>
<g id="clust2" class="cluster">
<title>cluster_GifsModule_declarations</title>
<polygon fill="none" stroke="black" points="138,-78 138,-130 756,-130 756,-78 138,-78"/>
</g>
<g id="clust7" class="cluster">
<title>cluster_GifsModule_imports</title>
<polygon fill="none" stroke="black" points="16,-78 16,-130 130,-130 130,-78 16,-78"/>
</g>
<g id="clust8" class="cluster">
<title>cluster_GifsModule_exports</title>
<polygon fill="none" stroke="black" points="297,-208 297,-260 459,-260 459,-208 297,-208"/>
</g>
<!-- CardListComponent -->
<g id="node1" class="node">
<title>CardListComponent</title>
<polygon fill="#ffffb3" stroke="black" points="748.32,-122 617.68,-122 617.68,-86 748.32,-86 748.32,-122"/>
<text text-anchor="middle" x="683" y="-99.8" font-family="Times,serif" font-size="14.00">CardListComponent</text>
</g>
<!-- GifsModule -->
<g id="node5" class="node">
<title>GifsModule</title>
<polygon fill="#8dd3c7" stroke="black" points="419.65,-187 416.65,-191 395.65,-191 392.65,-187 336.35,-187 336.35,-151 419.65,-151 419.65,-187"/>
<text text-anchor="middle" x="378" y="-164.8" font-family="Times,serif" font-size="14.00">GifsModule</text>
</g>
<!-- CardListComponent&#45;&gt;GifsModule -->
<g id="edge1" class="edge">
<title>CardListComponent&#45;&gt;GifsModule</title>
<path fill="none" stroke="black" d="M683,-122.28C683,-143.32 683,-175 683,-175 683,-175 429.77,-175 429.77,-175"/>
<polygon fill="black" stroke="black" points="429.77,-171.5 419.77,-175 429.77,-178.5 429.77,-171.5"/>
</g>
<!-- GifsCardComponent -->
<g id="node2" class="node">
<title>GifsCardComponent</title>
<polygon fill="#ffffb3" stroke="black" points="600.15,-122 467.85,-122 467.85,-86 600.15,-86 600.15,-122"/>
<text text-anchor="middle" x="534" y="-99.8" font-family="Times,serif" font-size="14.00">GifsCardComponent</text>
</g>
<!-- GifsCardComponent&#45;&gt;GifsModule -->
<g id="edge2" class="edge">
<title>GifsCardComponent&#45;&gt;GifsModule</title>
<path fill="none" stroke="black" d="M534,-122.02C534,-139.37 534,-163 534,-163 534,-163 429.81,-163 429.81,-163"/>
<polygon fill="black" stroke="black" points="429.81,-159.5 419.81,-163 429.81,-166.5 429.81,-159.5"/>
</g>
<!-- HomePageComponent -->
<g id="node3" class="node">
<title>HomePageComponent</title>
<polygon fill="#ffffb3" stroke="black" points="449.26,-122 306.74,-122 306.74,-86 449.26,-86 449.26,-122"/>
<text text-anchor="middle" x="378" y="-99.8" font-family="Times,serif" font-size="14.00">HomePageComponent</text>
</g>
<!-- HomePageComponent&#45;&gt;GifsModule -->
<g id="edge3" class="edge">
<title>HomePageComponent&#45;&gt;GifsModule</title>
<path fill="none" stroke="black" d="M378,-122.11C378,-122.11 378,-140.99 378,-140.99"/>
<polygon fill="black" stroke="black" points="374.5,-140.99 378,-150.99 381.5,-140.99 374.5,-140.99"/>
</g>
<!-- SearchBoxComponent -->
<g id="node4" class="node">
<title>SearchBoxComponent</title>
<polygon fill="#ffffb3" stroke="black" points="288.26,-122 145.74,-122 145.74,-86 288.26,-86 288.26,-122"/>
<text text-anchor="middle" x="217" y="-99.8" font-family="Times,serif" font-size="14.00">SearchBoxComponent</text>
</g>
<!-- SearchBoxComponent&#45;&gt;GifsModule -->
<g id="edge4" class="edge">
<title>SearchBoxComponent&#45;&gt;GifsModule</title>
<path fill="none" stroke="black" d="M217,-122.02C217,-139.37 217,-163 217,-163 217,-163 326.12,-163 326.12,-163"/>
<polygon fill="black" stroke="black" points="326.12,-166.5 336.12,-163 326.12,-159.5 326.12,-166.5"/>
</g>
<!-- HomePageComponent  -->
<g id="node7" class="node">
<title>HomePageComponent </title>
<polygon fill="#fb8072" stroke="black" points="451.26,-252 304.74,-252 304.74,-216 451.26,-216 451.26,-252"/>
<text text-anchor="middle" x="378" y="-229.8" font-family="Times,serif" font-size="14.00">HomePageComponent </text>
</g>
<!-- GifsModule&#45;&gt;HomePageComponent  -->
<g id="edge6" class="edge">
<title>GifsModule&#45;&gt;HomePageComponent </title>
<path fill="none" stroke="black" stroke-dasharray="5,2" d="M378,-187.11C378,-187.11 378,-205.99 378,-205.99"/>
<polygon fill="black" stroke="black" points="374.5,-205.99 378,-215.99 381.5,-205.99 374.5,-205.99"/>
</g>
<!-- SharedModule -->
<g id="node6" class="node">
<title>SharedModule</title>
<polygon fill="#8dd3c7" stroke="black" points="122.42,-122 119.42,-126 98.42,-126 95.42,-122 23.58,-122 23.58,-86 122.42,-86 122.42,-122"/>
<text text-anchor="middle" x="73" y="-99.8" font-family="Times,serif" font-size="14.00">SharedModule</text>
</g>
<!-- SharedModule&#45;&gt;GifsModule -->
<g id="edge5" class="edge">
<title>SharedModule&#45;&gt;GifsModule</title>
<path fill="none" stroke="black" d="M73,-122.28C73,-143.32 73,-175 73,-175 73,-175 326.23,-175 326.23,-175"/>
<polygon fill="black" stroke="black" points="326.23,-178.5 336.23,-175 326.23,-171.5 326.23,-178.5"/>
</g>
</g>
</svg>
